<?xml version="1.0" encoding="UTF-8"?><svg id="Layer_2" xmlns="http://www.w3.org/2000/svg" viewBox="0 0 151.9 24.92"><defs><style>.cls-1{fill:#231f20;stroke-width:0px;}</style></defs><g id="Layer_1-2"><polygon class="cls-1" points="37.71 24.91 46.55 24.91 50.31 0 41.48 0 37.71 24.91"/><path class="cls-1" d="M80.71,18.95h-16.85c.2-1.31,2.87-18.83,2.88-18.88V0S58.5,0,58.5,0l-3.77,24.91h22.08c.08,0,.51-.03.87-.56l3.14-4.9s.18-.25.1-.4c-.04-.07-.11-.1-.22-.1"/><path class="cls-1" d="M100.87,18.56h-5.31c-1.15,0-2.03-.34-2.59-1.02-1.04-1.26-.69-3.26-.69-3.28L94.43.08V0S86.32,0,86.32,0l-2.26,14.96s-1.05,3.43,1.07,6.96c.06.12,1.55,3,3.38,3h11.56c.1,0,.45-.04.57-.58l.72-5.35s0-.43-.49-.43"/><polygon class="cls-1" points="103.45 24.83 103.44 24.91 111.73 24.91 115.48 .08 115.49 0 107.21 0 103.45 24.83"/><path class="cls-1" d="M130.59.03l-.02-.03h-9.49c-.23,0-.36.05-.4.16-.07.16.12.36.13.37l17.01,24.35.02.03h9.37c.23,0,.38-.06.43-.18.1-.2-.11-.46-.14-.49L130.59.03Z"/><path class="cls-1" d="M151.88.16c-.04-.11-.18-.16-.41-.16h-9.83l-4.66,4.42,4.29,5.95.04.06,10.42-9.9s.21-.22.14-.38"/><path class="cls-1" d="M116.17,24.24s-.23.29-.14.49c.06.12.2.18.43.18h9.71l5.03-4.77-4.38-5.99-10.66,10.09Z"/><polygon class="cls-1" points="0 24.91 8.74 24.91 12.5 0 3.77 0 0 24.91"/><polygon class="cls-1" points="23.2 9.68 13.97 9.68 13.1 15.61 22.31 15.61 20.9 24.91 29.67 24.91 33.44 0 24.67 0 23.2 9.68"/></g></svg>